<?xml version="1.0" encoding="UTF-8" standalone="no"?>
<!-- Created with Inkscape (http://www.inkscape.org/) -->

<svg
   width="140mm"
   height="120mm"
   viewBox="0 0 140 120"
   version="1.1"
   id="svg1"
   inkscape:version="1.3.2 (091e20ef0f, 2023-11-25, custom)"
   sodipodi:docname="logo.svg"
   xmlns:inkscape="http://www.inkscape.org/namespaces/inkscape"
   xmlns:sodipodi="http://sodipodi.sourceforge.net/DTD/sodipodi-0.dtd"
   xmlns="http://www.w3.org/2000/svg"
   xmlns:svg="http://www.w3.org/2000/svg">
  <sodipodi:namedview
     id="namedview1"
     pagecolor="#ffffff"
     bordercolor="#000000"
     borderopacity="0.25"
     inkscape:showpageshadow="2"
     inkscape:pageopacity="0.0"
     inkscape:pagecheckerboard="0"
     inkscape:deskcolor="#d1d1d1"
     inkscape:document-units="mm"
     inkscape:zoom="1.3007117"
     inkscape:cx="301.75788"
     inkscape:cy="180.67032"
     inkscape:window-width="3840"
     inkscape:window-height="2091"
     inkscape:window-x="0"
     inkscape:window-y="32"
     inkscape:window-maximized="1"
     inkscape:current-layer="layer1" />
  <defs
     id="defs1" />
  <g
     inkscape:label="Layer 1"
     inkscape:groupmode="layer"
     id="layer1">
    <path
       id="path6-0-6-0-1-5-2"
       style="fill:#4063d8;fill-opacity:1;stroke:none;stroke-width:0.227992"
       inkscape:transform-center-x="5.3830281e-06"
       inkscape:transform-center-y="3.1683559e-06"
       d="m 89.545872,28.825449 c 1.35927,0 2.72144,0.0893 4.06908,0.26669 1.34765,0.17742 2.68651,0.44374 3.99946,0.79555 1.31297,0.35181 2.605618,0.79061 3.861418,1.31078 1.25581,0.52016 2.48012,1.12394 3.65729,1.80357 1.17717,0.67963 2.31221,1.43803 3.39058,2.26551 1.07838,0.82747 2.10471,1.72754 3.06586,2.6887 0.96117,0.96115 1.86122,1.98746 2.6887,3.06586 0.82747,1.07837 1.58587,2.21341 2.2655,3.39058 0.67965,1.17717 1.28341,2.40147 1.80358,3.65728 0.52017,1.2558 0.95897,2.54845 1.31077,3.8614 0.35181,1.31296 0.61813,2.65183 0.79556,3.99947 0.17742,1.34765 0.2667,2.70982 0.2667,4.06909 0,1.35927 -0.0893,2.72144 -0.2667,4.06909 -0.17743,1.34764 -0.44375,2.68651 -0.79556,3.99947 -0.3518,1.31295 -0.7906,2.60559 -1.31077,3.86139 -0.52017,1.25581 -1.12394,2.48012 -1.80357,3.65729 -0.67963,1.17717 -1.43804,2.31221 -2.26551,3.39058 -0.82747,1.07838 -1.72754,2.10471 -2.6887,3.06586 -0.96115,0.96116 -1.98748,1.86123 -3.06586,2.6887 -1.07837,0.82747 -2.21341,1.58588 -3.39058,2.265507 -1.17717,0.67963 -2.40148,1.28341 -3.65729,1.80357 -1.2558,0.52017 -2.548438,0.95897 -3.861388,1.31077 -1.31296,0.35181 -2.65183,0.61812 -3.99947,0.79555 -1.34765,0.17742 -2.70983,0.2667 -4.06909,0.2667 -1.35927,0 -2.72144,-0.0893 -4.06909,-0.2667 -1.347638,-0.17743 -2.686508,-0.44374 -3.999468,-0.79555 -1.31295,-0.3518 -2.6056,-0.7906 -3.8614,-1.31077 -1.25581,-0.52016 -2.48011,-1.12394 -3.65728,-1.80357 -1.17717,-0.679627 -2.31221,-1.438037 -3.39058,-2.265507 -1.07838,-0.82747 -2.10471,-1.72754 -3.06586,-2.6887 -0.96116,-0.96115 -1.86123,-1.98748 -2.6887,-3.06586 -0.82747,-1.07837 -1.58588,-2.21341 -2.26551,-3.39058 -0.67963,-1.17717 -1.28341,-2.40147 -1.80357,-3.65728 -0.52017,-1.2558 -0.95897,-2.54845 -1.31078,-3.8614 -0.35181,-1.31296 -0.61813,-2.65183 -0.79555,-3.99947 -0.17741,-1.34765 -0.26669,-2.70982 -0.26669,-4.06909 0,-1.35927 0.0893,-2.72144 0.26669,-4.06909 0.17742,-1.34764 0.44374,-2.68651 0.79555,-3.99947 0.35181,-1.31295 0.79061,-2.6056 1.31078,-3.8614 0.52016,-1.25581 1.12394,-2.48011 1.80357,-3.65728 0.67963,-1.17717 1.43804,-2.31221 2.26551,-3.39058 0.82747,-1.07838 1.72754,-2.10471 2.6887,-3.06586 0.96115,-0.96116 1.98748,-1.86123 3.06586,-2.6887 1.07837,-0.82747 2.21341,-1.58588 3.39058,-2.26551 1.17716,-0.67963 2.40146,-1.28341 3.65728,-1.80357 1.2558,-0.52017 2.54845,-0.95897 3.8614,-1.31078 1.31296,-0.35181 2.65183,-0.61813 3.999468,-0.79555 1.34765,-0.17741 2.70982,-0.26669 4.06908,-0.26669 z m 2e-5,-18.82552 c -2.1801,0 -4.36483,0.1432 -6.526298,0.42775 -2.16146,0.28455 -4.30883,0.7117 -6.41463,1.27595 -2.10582,0.56426 -4.17907,1.26803 -6.19322,2.10232 -2.01416,0.83428 -3.97781,1.80266 -5.86584,2.89271 -1.888029,1.09005 -3.70849,2.30643 -5.43807,3.6336 -1.72959,1.32716 -3.3757,2.77077 -4.91726,4.31233 -1.54157,1.54157 -2.98517,3.18766 -4.31234,4.91727 -1.32716,1.72958 -2.54354,3.55004 -3.63359,5.43807 -1.09005,1.88803 -2.05842,3.85167 -2.89271,5.86582 -0.83428,2.01416 -1.53806,4.08741 -2.10231,6.19322 -0.564259,2.10582 -0.991389,4.25319 -1.27596,6.41465 -0.28456,2.16145 -0.42776,4.34621 -0.42776,6.52631 0,2.1801 0.1432,4.36486 0.42776,6.52631 0.284571,2.16146 0.711701,4.30883 1.27596,6.41465 0.56425,2.10581 1.268031,4.17905 2.10231,6.1932 0.83429,2.01416 1.80265,3.97781 2.8927,5.86584 1.09005,1.888027 2.30644,3.708487 3.6336,5.438067 1.32716,1.72959 2.77076,3.3757 4.31233,4.91727 1.54157,1.541575 3.18768,2.985175 4.91727,4.312335 1.72958,1.327159 3.55004,2.543549 5.43807,3.633599 1.88803,1.09005 3.85168,2.05843 5.86584,2.89271 2.01415,0.83429 4.08739,1.53805 6.1932,2.1023 2.10581,0.56426 4.25318,0.99139 6.41464,1.27596 2.161448,0.28456 4.346218,0.42776 6.526308,0.42776 2.18011,0 4.36486,-0.1432 6.52631,-0.42776 2.16146,-0.28457 4.308838,-0.7117 6.414668,-1.27596 2.10581,-0.56425 4.17906,-1.26801 6.19322,-2.1023 2.01415,-0.83428 3.97779,-1.80266 5.86582,-2.89271 1.88803,-1.09005 3.70849,-2.30644 5.43807,-3.633599 1.72959,-1.32716 3.3757,-2.77076 4.91727,-4.312335 1.54157,-1.54157 2.98517,-3.18768 4.31233,-4.91727 1.32715,-1.72958 2.54355,-3.55004 3.6336,-5.438067 1.09004,-1.88803 2.05842,-3.85167 2.89271,-5.86582 0.83429,-2.01416 1.53806,-4.08741 2.10231,-6.19322 0.56425,-2.10582 0.9914,-4.25319 1.27595,-6.41465 0.28455,-2.16145 0.42775,-4.34621 0.42775,-6.52631 0,-2.1801 -0.1432,-4.36486 -0.42775,-6.52631 -0.28455,-2.16146 -0.7117,-4.30883 -1.27595,-6.41465 -0.56425,-2.10581 -1.26803,-4.17906 -2.10231,-6.19322 -0.83429,-2.01415 -1.80267,-3.97779 -2.89271,-5.86582 -1.09005,-1.88803 -2.30645,-3.70849 -3.6336,-5.43807 -1.32716,-1.72959 -2.77076,-3.3757 -4.31233,-4.91727 -1.54157,-1.54157 -3.18768,-2.98517 -4.91727,-4.31233 -1.72958,-1.32716 -3.55004,-2.54355 -5.43807,-3.6336 -1.88803,-1.09005 -3.85167,-2.05843 -5.86582,-2.89271 -2.01416,-0.83429 -4.08741,-1.53806 -6.19322,-2.10232 -2.10583,-0.56425 -4.253208,-0.9914 -6.414668,-1.27595 -2.16145,-0.28455 -4.34621,-0.42775 -6.52631,-0.42775 z" />
    <path
       id="path13-2-4"
       style="fill:#9558b2;fill-opacity:1;stroke:none;stroke-width:0.365671"
       d="m 89.545892,91.140096 c -1.17048,1.46921 -2.40861,2.88765 -3.73621,4.21525 -1.541548,1.541555 -3.187948,2.985255 -4.917518,4.312395 -1.72958,1.327159 -3.54989,2.543339 -5.43791,3.633369 -1.75769,1.01481 -3.58593,1.91241 -5.454439,2.7063 0.138679,0.0589 0.27269,0.12891 0.411859,0.18655 2.01414,0.83429 4.08761,1.53795 6.19341,2.1022 2.10582,0.56426 4.25314,0.99132 6.41459,1.27589 2.161448,0.28456 4.346128,0.42788 6.526218,0.42788 2.18011,0 4.36477,-0.14332 6.52622,-0.42788 2.16146,-0.28457 4.308788,-0.71163 6.414608,-1.27589 2.10581,-0.56425 4.17927,-1.26791 6.19342,-2.1022 0.13917,-0.0576 0.27319,-0.12763 0.41186,-0.18655 -1.86852,-0.79389 -3.69673,-1.69149 -5.45444,-2.7063 -1.88803,-1.09003 -3.708368,-2.30621 -5.437928,-3.633369 -1.72959,-1.32714 -3.37596,-2.77084 -4.91753,-4.312395 -1.32759,-1.3276 -2.56573,-2.74604 -3.73621,-4.21525 z M 50.454094,10.000069 c -2.1801,0 -4.36483,0.1432 -6.52629,0.42775 -2.16146,0.28455 -4.30883,0.7117 -6.414639,1.27595 -2.10582,0.56426 -4.17907,1.26803 -6.19322,2.10232 -2.01416,0.83428 -3.97781,1.80266 -5.86585,2.89271 -1.88803,1.09005 -3.70848,2.30643 -5.43806,3.6336 -1.72959,1.32716 -3.3757,2.77077 -4.91726,4.31233 -1.541571,1.54157 -2.985171,3.18766 -4.312341,4.91727 -1.327159,1.72958 -2.54354,3.55004 -3.6336,5.43807 -1.090049,1.88803 -2.05842,3.85167 -2.892709,5.86582 -0.834281,2.01416 -1.53806,4.08741 -2.10231,6.19322 -0.56426,2.10582 -0.99139,4.25319 -1.27596,6.41465 -0.28456,2.16145 -0.42776,4.34621 -0.42776,6.52631 0,2.1801 0.1432,4.36486 0.42776,6.52631 0.28457,2.16146 0.7117,4.30883 1.27596,6.41465 0.56425,2.10581 1.26803,4.17905 2.10231,6.1932 0.83429,2.01416 1.80265,3.97781 2.892699,5.86584 1.09005,1.888027 2.306441,3.708487 3.6336,5.438067 1.32716,1.72959 2.77076,3.3757 4.31233,4.91727 1.541571,1.541575 3.18768,2.985175 4.917271,4.312335 1.729579,1.327159 3.550039,2.543549 5.43807,3.633599 1.888029,1.09005 3.851679,2.05843 5.86584,2.89271 2.01415,0.83429 4.08739,1.53805 6.193199,2.1023 2.10582,0.56426 4.25319,0.99139 6.41465,1.27596 2.16145,0.28456 4.346211,0.42776 6.52631,0.42776 2.1801,0 4.36486,-0.1432 6.52631,-0.42776 2.16146,-0.28457 4.30883,-0.7117 6.41465,-1.27596 2.10581,-0.56425 4.17906,-1.26801 6.19322,-2.1023 2.01415,-0.83428 3.97779,-1.80266 5.86582,-2.89271 1.88803,-1.09005 3.70849,-2.30644 5.43807,-3.633599 1.72959,-1.32716 3.3757,-2.77076 4.917268,-4.312335 1.54157,-1.54157 2.98517,-3.18768 4.31233,-4.91727 1.32716,-1.72958 2.54355,-3.55004 3.6336,-5.438067 1.09005,-1.88803 2.05843,-3.85167 2.89271,-5.86582 0.83429,-2.01416 1.53806,-4.08741 2.10232,-6.19322 0.56425,-2.10582 0.9914,-4.25319 1.275948,-6.41465 0.28456,-2.16145 0.42776,-4.34621 0.42776,-6.52631 0,-2.1801 -0.1432,-4.36486 -0.42776,-6.52631 -0.284548,-2.16146 -0.711698,-4.30883 -1.275948,-6.41465 -0.56426,-2.10581 -1.26803,-4.17906 -2.10232,-6.19322 -0.83428,-2.01415 -1.80266,-3.97779 -2.89271,-5.86582 -1.09005,-1.88803 -2.30644,-3.70849 -3.6336,-5.43807 -1.32716,-1.72959 -2.77076,-3.3757 -4.31233,-4.91727 -1.541568,-1.54157 -3.187678,-2.98517 -4.917268,-4.31233 -1.72958,-1.32716 -3.55004,-2.54355 -5.43807,-3.6336 -1.88803,-1.09005 -3.85167,-2.05843 -5.86582,-2.89271 -2.01416,-0.83429 -4.08741,-1.53806 -6.19322,-2.10232 -2.10582,-0.56425 -4.25319,-0.9914 -6.41465,-1.27595 -2.16145,-0.28455 -4.34621,-0.42775 -6.52631,-0.42775 z m -2e-5,18.82552 c 1.35928,0 2.72144,0.0893 4.06908,0.26669 1.34764,0.17742 2.68651,0.44374 3.99946,0.79555 1.31296,0.35181 2.60561,0.79061 3.86141,1.31078 1.25581,0.52016 2.48012,1.12394 3.65729,1.80357 1.17717,0.67963 2.31221,1.43803 3.39058,2.26551 1.07838,0.82747 2.10471,1.72754 3.06586,2.6887 0.96116,0.96115 1.86122,1.98746 2.6887,3.06586 0.82747,1.07837 1.58587,2.21341 2.2655,3.39058 0.67964,1.17717 1.28341,2.40147 1.80358,3.65728 0.52017,1.2558 0.95897,2.54845 1.31077,3.8614 0.35181,1.31296 0.61812,2.65183 0.79555,3.99947 0.17742,1.34765 0.2667,2.70982 0.2667,4.06909 0,1.35927 -0.0893,2.72144 -0.2667,4.06909 -0.17743,1.34764 -0.44374,2.68651 -0.79555,3.99947 -0.3518,1.31295 -0.7906,2.60559 -1.31077,3.86139 -0.52017,1.25581 -1.12394,2.48012 -1.80357,3.65729 -0.67963,1.17717 -1.43804,2.31221 -2.26551,3.39058 -0.82747,1.07838 -1.72754,2.10471 -2.6887,3.06586 -0.96115,0.96116 -1.98748,1.86123 -3.06586,2.6887 -1.07837,0.82747 -2.21341,1.58588 -3.39058,2.265507 -1.17717,0.67963 -2.40148,1.28341 -3.65729,1.80357 -1.2558,0.52017 -2.54844,0.95897 -3.86139,1.31077 -1.31296,0.35181 -2.65183,0.61812 -3.99947,0.79555 -1.34765,0.17742 -2.70982,0.2667 -4.06909,0.2667 -1.35927,0 -2.72144,-0.0893 -4.06908,-0.2667 -1.347649,-0.17743 -2.68651,-0.44374 -3.99947,-0.79555 -1.31295,-0.3518 -2.60561,-0.7906 -3.86141,-1.31077 -1.2558,-0.52016 -2.4801,-1.12394 -3.65728,-1.80357 -1.17717,-0.679627 -2.31221,-1.438037 -3.39058,-2.265507 -1.07838,-0.82747 -2.10471,-1.72754 -3.06586,-2.6887 -0.96116,-0.96115 -1.86122,-1.98748 -2.68869,-3.06586 -0.82747,-1.07837 -1.58588,-2.21341 -2.26551,-3.39058 -0.67963,-1.17717 -1.28341,-2.40147 -1.80357,-3.65728 -0.52017,-1.2558 -0.95897,-2.54845 -1.31078,-3.8614 -0.35181,-1.31296 -0.61814,-2.65183 -0.79555,-3.99947 -0.17741,-1.34765 -0.26669,-2.70982 -0.26669,-4.06909 0,-1.35927 0.0893,-2.72144 0.26669,-4.06909 0.17741,-1.34764 0.44374,-2.68651 0.79555,-3.99947 0.35181,-1.31295 0.79061,-2.6056 1.31078,-3.8614 0.52016,-1.25581 1.12394,-2.48011 1.80357,-3.65728 0.67962,-1.17717 1.43804,-2.31221 2.26551,-3.39058 0.82747,-1.07838 1.72753,-2.10471 2.68869,-3.06586 0.96116,-0.96116 1.98749,-1.86123 3.06586,-2.6887 1.07837,-0.82747 2.21341,-1.58588 3.39058,-2.26551 1.17717,-0.67963 2.40147,-1.28341 3.65728,-1.80357 1.2558,-0.52017 2.54846,-0.95897 3.86141,-1.31078 1.31296,-0.35181 2.65182,-0.61813 3.99947,-0.79555 1.347641,-0.17741 2.70982,-0.26669 4.06908,-0.26669 z" />
    <path
       id="path6-0-6-0-1-5-2-7"
       style="fill:#4063d8;fill-opacity:1;stroke:none;stroke-width:0.227992"
       inkscape:transform-center-x="5.3830281e-06"
       inkscape:transform-center-y="3.1683559e-06"
       d="m 58.371404,59.999929 c 0,-1.35927 0.0893,-2.72144 0.26669,-4.06909 0.17743,-1.34764 0.44374,-2.68651 0.79555,-3.99947 0.35181,-1.31295 0.79061,-2.6056 1.31078,-3.8614 0.52016,-1.25581 1.12394,-2.48011 1.80357,-3.65728 0.67963,-1.17717 1.43804,-2.31221 2.26551,-3.39058 0.82747,-1.07838 1.72754,-2.10471 2.68871,-3.06586 0.96115,-0.96116 1.98748,-1.86123 3.06585,-2.6887 1.07837,-0.82747 2.21341,-1.58588 3.39058,-2.26551 1.17717,-0.67963 2.40147,-1.28341 3.65728,-1.80357 1.2558,-0.52017 2.54845,-0.95897 3.8614,-1.31078 1.31296,-0.35181 2.65183,-0.61813 3.999468,-0.79555 1.34765,-0.17741 2.70982,-0.26669 4.06909,-0.26669 l 2e-5,-18.82552 c -2.1801,0 -4.36484,0.1432 -6.526298,0.42775 -2.16146,0.28455 -4.30883,0.7117 -6.41464,1.27595 -2.10582,0.56426 -4.17907,1.26803 -6.19322,2.10232 -2.01416,0.83428 -3.97781,1.80266 -5.86584,2.89271 -1.888029,1.09005 -3.70849,2.30643 -5.43807,3.6336 -1.72959,1.32716 -3.3757,2.77077 -4.91726,4.31233 -1.54157,1.54157 -2.98517,3.18766 -4.31234,4.91727 -1.32716,1.72958 -2.54354,3.55004 -3.63359,5.43807 -1.09005,1.88803 -2.05842,3.85167 -2.89271,5.86582 -0.83428,2.01416 -1.53806,4.08741 -2.10231,6.19322 -0.564259,2.10582 -0.99139,4.25319 -1.27596,6.41465 -0.28456,2.16145 -0.42776,4.34621 -0.42776,6.52631 z"
       sodipodi:nodetypes="csssssssssssccssssssssssscc" />
  </g>
</svg>
