<?xml version="1.0" encoding="utf-8"?>
<svg xmlns="http://www.w3.org/2000/svg" xmlns:xlink="http://www.w3.org/1999/xlink" width="600" height="400" viewBox="0 0 2400 1600">
<defs>
  <clipPath id="clip290">
    <rect x="0" y="0" width="2400" height="1600"/>
  </clipPath>
</defs>
<path clip-path="url(#clip290)" d="M0 1600 L2400 1600 L2400 0 L0 0  Z" fill="#ffffff" fill-rule="evenodd" fill-opacity="1"/>
<defs>
  <clipPath id="clip291">
    <rect x="480" y="0" width="1681" height="1600"/>
  </clipPath>
</defs>
<path clip-path="url(#clip290)" d="M110.881 1486.45 L2352.76 1486.45 L2352.76 47.2441 L110.881 47.2441  Z" fill="#ffffff" fill-rule="evenodd" fill-opacity="1"/>
<defs>
  <clipPath id="clip292">
    <rect x="110" y="47" width="2243" height="1440"/>
  </clipPath>
</defs>
<polyline clip-path="url(#clip292)" style="stroke:#000000; stroke-linecap:round; stroke-linejoin:round; stroke-width:2; stroke-opacity:0.1; fill:none" points="110.881,1486.45 110.881,47.2441 "/>
<polyline clip-path="url(#clip292)" style="stroke:#000000; stroke-linecap:round; stroke-linejoin:round; stroke-width:2; stroke-opacity:0.1; fill:none" points="671.35,1486.45 671.35,47.2441 "/>
<polyline clip-path="url(#clip292)" style="stroke:#000000; stroke-linecap:round; stroke-linejoin:round; stroke-width:2; stroke-opacity:0.1; fill:none" points="1231.82,1486.45 1231.82,47.2441 "/>
<polyline clip-path="url(#clip292)" style="stroke:#000000; stroke-linecap:round; stroke-linejoin:round; stroke-width:2; stroke-opacity:0.1; fill:none" points="1792.29,1486.45 1792.29,47.2441 "/>
<polyline clip-path="url(#clip292)" style="stroke:#000000; stroke-linecap:round; stroke-linejoin:round; stroke-width:2; stroke-opacity:0.1; fill:none" points="2352.76,1486.45 2352.76,47.2441 "/>
<polyline clip-path="url(#clip292)" style="stroke:#000000; stroke-linecap:round; stroke-linejoin:round; stroke-width:2; stroke-opacity:0.1; fill:none" points="110.881,1192.08 2352.76,1192.08 "/>
<polyline clip-path="url(#clip292)" style="stroke:#000000; stroke-linecap:round; stroke-linejoin:round; stroke-width:2; stroke-opacity:0.1; fill:none" points="110.881,872.877 2352.76,872.877 "/>
<polyline clip-path="url(#clip292)" style="stroke:#000000; stroke-linecap:round; stroke-linejoin:round; stroke-width:2; stroke-opacity:0.1; fill:none" points="110.881,553.672 2352.76,553.672 "/>
<polyline clip-path="url(#clip292)" style="stroke:#000000; stroke-linecap:round; stroke-linejoin:round; stroke-width:2; stroke-opacity:0.1; fill:none" points="110.881,234.467 2352.76,234.467 "/>
<polyline clip-path="url(#clip290)" style="stroke:#000000; stroke-linecap:round; stroke-linejoin:round; stroke-width:4; stroke-opacity:1; fill:none" points="110.881,1486.45 2352.76,1486.45 "/>
<polyline clip-path="url(#clip290)" style="stroke:#000000; stroke-linecap:round; stroke-linejoin:round; stroke-width:4; stroke-opacity:1; fill:none" points="110.881,1486.45 110.881,1467.55 "/>
<polyline clip-path="url(#clip290)" style="stroke:#000000; stroke-linecap:round; stroke-linejoin:round; stroke-width:4; stroke-opacity:1; fill:none" points="671.35,1486.45 671.35,1467.55 "/>
<polyline clip-path="url(#clip290)" style="stroke:#000000; stroke-linecap:round; stroke-linejoin:round; stroke-width:4; stroke-opacity:1; fill:none" points="1231.82,1486.45 1231.82,1467.55 "/>
<polyline clip-path="url(#clip290)" style="stroke:#000000; stroke-linecap:round; stroke-linejoin:round; stroke-width:4; stroke-opacity:1; fill:none" points="1792.29,1486.45 1792.29,1467.55 "/>
<polyline clip-path="url(#clip290)" style="stroke:#000000; stroke-linecap:round; stroke-linejoin:round; stroke-width:4; stroke-opacity:1; fill:none" points="2352.76,1486.45 2352.76,1467.55 "/>
<path clip-path="url(#clip290)" d="M57.409 1532.02 L87.0847 1532.02 L87.0847 1535.95 L57.409 1535.95 L57.409 1532.02 Z" fill="#000000" fill-rule="nonzero" fill-opacity="1" /><path clip-path="url(#clip290)" d="M97.2236 1514.29 L115.58 1514.29 L115.58 1518.22 L101.506 1518.22 L101.506 1526.7 Q102.524 1526.35 103.543 1526.19 Q104.561 1526 105.58 1526 Q111.367 1526 114.747 1529.17 Q118.126 1532.34 118.126 1537.76 Q118.126 1543.34 114.654 1546.44 Q111.182 1549.52 104.862 1549.52 Q102.686 1549.52 100.418 1549.15 Q98.1726 1548.78 95.7652 1548.04 L95.7652 1543.34 Q97.8485 1544.47 100.071 1545.03 Q102.293 1545.58 104.77 1545.58 Q108.774 1545.58 111.112 1543.48 Q113.45 1541.37 113.45 1537.76 Q113.45 1534.15 111.112 1532.04 Q108.774 1529.94 104.77 1529.94 Q102.895 1529.94 101.02 1530.35 Q99.168 1530.77 97.2236 1531.65 L97.2236 1514.29 Z" fill="#000000" fill-rule="nonzero" fill-opacity="1" /><path clip-path="url(#clip290)" d="M127.339 1542.97 L132.223 1542.97 L132.223 1548.85 L127.339 1548.85 L127.339 1542.97 Z" fill="#000000" fill-rule="nonzero" fill-opacity="1" /><path clip-path="url(#clip290)" d="M152.408 1517.37 Q148.797 1517.37 146.969 1520.93 Q145.163 1524.47 145.163 1531.6 Q145.163 1538.71 146.969 1542.27 Q148.797 1545.82 152.408 1545.82 Q156.043 1545.82 157.848 1542.27 Q159.677 1538.71 159.677 1531.6 Q159.677 1524.47 157.848 1520.93 Q156.043 1517.37 152.408 1517.37 M152.408 1513.66 Q158.219 1513.66 161.274 1518.27 Q164.353 1522.85 164.353 1531.6 Q164.353 1540.33 161.274 1544.94 Q158.219 1549.52 152.408 1549.52 Q146.598 1549.52 143.52 1544.94 Q140.464 1540.33 140.464 1531.6 Q140.464 1522.85 143.52 1518.27 Q146.598 1513.66 152.408 1513.66 Z" fill="#000000" fill-rule="nonzero" fill-opacity="1" /><path clip-path="url(#clip290)" d="M618.375 1532.02 L648.051 1532.02 L648.051 1535.95 L618.375 1535.95 L618.375 1532.02 Z" fill="#000000" fill-rule="nonzero" fill-opacity="1" /><path clip-path="url(#clip290)" d="M662.171 1544.91 L678.491 1544.91 L678.491 1548.85 L656.546 1548.85 L656.546 1544.91 Q659.209 1542.16 663.792 1537.53 Q668.398 1532.88 669.579 1531.53 Q671.824 1529.01 672.704 1527.27 Q673.607 1525.51 673.607 1523.82 Q673.607 1521.07 671.662 1519.33 Q669.741 1517.6 666.639 1517.6 Q664.44 1517.6 661.986 1518.36 Q659.556 1519.13 656.778 1520.68 L656.778 1515.95 Q659.602 1514.82 662.056 1514.24 Q664.509 1513.66 666.546 1513.66 Q671.917 1513.66 675.111 1516.35 Q678.306 1519.03 678.306 1523.52 Q678.306 1525.65 677.495 1527.57 Q676.708 1529.47 674.602 1532.07 Q674.023 1532.74 670.921 1535.95 Q667.82 1539.15 662.171 1544.91 Z" fill="#000000" fill-rule="nonzero" fill-opacity="1" /><path clip-path="url(#clip290)" d="M688.306 1542.97 L693.19 1542.97 L693.19 1548.85 L688.306 1548.85 L688.306 1542.97 Z" fill="#000000" fill-rule="nonzero" fill-opacity="1" /><path clip-path="url(#clip290)" d="M703.421 1514.29 L721.778 1514.29 L721.778 1518.22 L707.704 1518.22 L707.704 1526.7 Q708.722 1526.35 709.741 1526.19 Q710.759 1526 711.778 1526 Q717.565 1526 720.944 1529.17 Q724.324 1532.34 724.324 1537.76 Q724.324 1543.34 720.852 1546.44 Q717.379 1549.52 711.06 1549.52 Q708.884 1549.52 706.616 1549.15 Q704.37 1548.78 701.963 1548.04 L701.963 1543.34 Q704.046 1544.47 706.268 1545.03 Q708.491 1545.58 710.967 1545.58 Q714.972 1545.58 717.31 1543.48 Q719.648 1541.37 719.648 1537.76 Q719.648 1534.15 717.31 1532.04 Q714.972 1529.94 710.967 1529.94 Q709.092 1529.94 707.218 1530.35 Q705.366 1530.77 703.421 1531.65 L703.421 1514.29 Z" fill="#000000" fill-rule="nonzero" fill-opacity="1" /><path clip-path="url(#clip290)" d="M1209.2 1517.37 Q1205.59 1517.37 1203.76 1520.93 Q1201.96 1524.47 1201.96 1531.6 Q1201.96 1538.71 1203.76 1542.27 Q1205.59 1545.82 1209.2 1545.82 Q1212.84 1545.82 1214.64 1542.27 Q1216.47 1538.71 1216.47 1531.6 Q1216.47 1524.47 1214.64 1520.93 Q1212.84 1517.37 1209.2 1517.37 M1209.2 1513.66 Q1215.01 1513.66 1218.07 1518.27 Q1221.15 1522.85 1221.15 1531.6 Q1221.15 1540.33 1218.07 1544.94 Q1215.01 1549.52 1209.2 1549.52 Q1203.39 1549.52 1200.31 1544.94 Q1197.26 1540.33 1197.26 1531.6 Q1197.26 1522.85 1200.31 1518.27 Q1203.39 1513.66 1209.2 1513.66 Z" fill="#000000" fill-rule="nonzero" fill-opacity="1" /><path clip-path="url(#clip290)" d="M1229.36 1542.97 L1234.25 1542.97 L1234.25 1548.85 L1229.36 1548.85 L1229.36 1542.97 Z" fill="#000000" fill-rule="nonzero" fill-opacity="1" /><path clip-path="url(#clip290)" d="M1254.43 1517.37 Q1250.82 1517.37 1248.99 1520.93 Q1247.19 1524.47 1247.19 1531.6 Q1247.19 1538.71 1248.99 1542.27 Q1250.82 1545.82 1254.43 1545.82 Q1258.07 1545.82 1259.87 1542.27 Q1261.7 1538.71 1261.7 1531.6 Q1261.7 1524.47 1259.87 1520.93 Q1258.07 1517.37 1254.43 1517.37 M1254.43 1513.66 Q1260.24 1513.66 1263.3 1518.27 Q1266.38 1522.85 1266.38 1531.6 Q1266.38 1540.33 1263.3 1544.94 Q1260.24 1549.52 1254.43 1549.52 Q1248.62 1549.52 1245.55 1544.94 Q1242.49 1540.33 1242.49 1531.6 Q1242.49 1522.85 1245.55 1518.27 Q1248.62 1513.66 1254.43 1513.66 Z" fill="#000000" fill-rule="nonzero" fill-opacity="1" /><path clip-path="url(#clip290)" d="M1764.02 1544.91 L1780.34 1544.91 L1780.34 1548.85 L1758.4 1548.85 L1758.4 1544.91 Q1761.06 1542.16 1765.64 1537.53 Q1770.25 1532.88 1771.43 1531.53 Q1773.68 1529.01 1774.56 1527.27 Q1775.46 1525.51 1775.46 1523.82 Q1775.46 1521.07 1773.51 1519.33 Q1771.59 1517.6 1768.49 1517.6 Q1766.29 1517.6 1763.84 1518.36 Q1761.41 1519.13 1758.63 1520.68 L1758.63 1515.95 Q1761.45 1514.82 1763.91 1514.24 Q1766.36 1513.66 1768.4 1513.66 Q1773.77 1513.66 1776.96 1516.35 Q1780.16 1519.03 1780.16 1523.52 Q1780.16 1525.65 1779.35 1527.57 Q1778.56 1529.47 1776.45 1532.07 Q1775.88 1532.74 1772.77 1535.95 Q1769.67 1539.15 1764.02 1544.91 Z" fill="#000000" fill-rule="nonzero" fill-opacity="1" /><path clip-path="url(#clip290)" d="M1790.16 1542.97 L1795.04 1542.97 L1795.04 1548.85 L1790.16 1548.85 L1790.16 1542.97 Z" fill="#000000" fill-rule="nonzero" fill-opacity="1" /><path clip-path="url(#clip290)" d="M1805.27 1514.29 L1823.63 1514.29 L1823.63 1518.22 L1809.56 1518.22 L1809.56 1526.7 Q1810.57 1526.35 1811.59 1526.19 Q1812.61 1526 1813.63 1526 Q1819.42 1526 1822.8 1529.17 Q1826.18 1532.34 1826.18 1537.76 Q1826.18 1543.34 1822.7 1546.44 Q1819.23 1549.52 1812.91 1549.52 Q1810.74 1549.52 1808.47 1549.15 Q1806.22 1548.78 1803.81 1548.04 L1803.81 1543.34 Q1805.9 1544.47 1808.12 1545.03 Q1810.34 1545.58 1812.82 1545.58 Q1816.82 1545.58 1819.16 1543.48 Q1821.5 1541.37 1821.5 1537.76 Q1821.5 1534.15 1819.16 1532.04 Q1816.82 1529.94 1812.82 1529.94 Q1810.94 1529.94 1809.07 1530.35 Q1807.22 1530.77 1805.27 1531.65 L1805.27 1514.29 Z" fill="#000000" fill-rule="nonzero" fill-opacity="1" /><path clip-path="url(#clip290)" d="M2319.92 1514.29 L2338.28 1514.29 L2338.28 1518.22 L2324.2 1518.22 L2324.2 1526.7 Q2325.22 1526.35 2326.24 1526.19 Q2327.26 1526 2328.28 1526 Q2334.06 1526 2337.44 1529.17 Q2340.82 1532.34 2340.82 1537.76 Q2340.82 1543.34 2337.35 1546.44 Q2333.88 1549.52 2327.56 1549.52 Q2325.38 1549.52 2323.11 1549.15 Q2320.87 1548.78 2318.46 1548.04 L2318.46 1543.34 Q2320.55 1544.47 2322.77 1545.03 Q2324.99 1545.58 2327.47 1545.58 Q2331.47 1545.58 2333.81 1543.48 Q2336.15 1541.37 2336.15 1537.76 Q2336.15 1534.15 2333.81 1532.04 Q2331.47 1529.94 2327.47 1529.94 Q2325.59 1529.94 2323.72 1530.35 Q2321.86 1530.77 2319.92 1531.65 L2319.92 1514.29 Z" fill="#000000" fill-rule="nonzero" fill-opacity="1" /><path clip-path="url(#clip290)" d="M2350.04 1542.97 L2354.92 1542.97 L2354.92 1548.85 L2350.04 1548.85 L2350.04 1542.97 Z" fill="#000000" fill-rule="nonzero" fill-opacity="1" /><path clip-path="url(#clip290)" d="M2375.11 1517.37 Q2371.49 1517.37 2369.67 1520.93 Q2367.86 1524.47 2367.86 1531.6 Q2367.86 1538.71 2369.67 1542.27 Q2371.49 1545.82 2375.11 1545.82 Q2378.74 1545.82 2380.55 1542.27 Q2382.37 1538.71 2382.37 1531.6 Q2382.37 1524.47 2380.55 1520.93 Q2378.74 1517.37 2375.11 1517.37 M2375.11 1513.66 Q2380.92 1513.66 2383.97 1518.27 Q2387.05 1522.85 2387.05 1531.6 Q2387.05 1540.33 2383.97 1544.94 Q2380.92 1549.52 2375.11 1549.52 Q2369.3 1549.52 2366.22 1544.94 Q2363.16 1540.33 2363.16 1531.6 Q2363.16 1522.85 2366.22 1518.27 Q2369.3 1513.66 2375.11 1513.66 Z" fill="#000000" fill-rule="nonzero" fill-opacity="1" /><polyline clip-path="url(#clip290)" style="stroke:#000000; stroke-linecap:round; stroke-linejoin:round; stroke-width:4; stroke-opacity:1; fill:none" points="110.881,1486.45 110.881,47.2441 "/>
<polyline clip-path="url(#clip290)" style="stroke:#000000; stroke-linecap:round; stroke-linejoin:round; stroke-width:4; stroke-opacity:1; fill:none" points="110.881,1192.08 129.779,1192.08 "/>
<polyline clip-path="url(#clip290)" style="stroke:#000000; stroke-linecap:round; stroke-linejoin:round; stroke-width:4; stroke-opacity:1; fill:none" points="110.881,872.877 129.779,872.877 "/>
<polyline clip-path="url(#clip290)" style="stroke:#000000; stroke-linecap:round; stroke-linejoin:round; stroke-width:4; stroke-opacity:1; fill:none" points="110.881,553.672 129.779,553.672 "/>
<polyline clip-path="url(#clip290)" style="stroke:#000000; stroke-linecap:round; stroke-linejoin:round; stroke-width:4; stroke-opacity:1; fill:none" points="110.881,234.467 129.779,234.467 "/>
<path clip-path="url(#clip290)" d="M62.9365 1177.88 Q59.3254 1177.88 57.4967 1181.44 Q55.6912 1184.99 55.6912 1192.12 Q55.6912 1199.22 57.4967 1202.79 Q59.3254 1206.33 62.9365 1206.33 Q66.5707 1206.33 68.3763 1202.79 Q70.205 1199.22 70.205 1192.12 Q70.205 1184.99 68.3763 1181.44 Q66.5707 1177.88 62.9365 1177.88 M62.9365 1174.18 Q68.7467 1174.18 71.8022 1178.78 Q74.8809 1183.37 74.8809 1192.12 Q74.8809 1200.84 71.8022 1205.45 Q68.7467 1210.03 62.9365 1210.03 Q57.1264 1210.03 54.0477 1205.45 Q50.9921 1200.84 50.9921 1192.12 Q50.9921 1183.37 54.0477 1178.78 Q57.1264 1174.18 62.9365 1174.18 Z" fill="#000000" fill-rule="nonzero" fill-opacity="1" /><path clip-path="url(#clip290)" d="M54.9736 886.221 L62.6124 886.221 L62.6124 859.856 L54.3023 861.522 L54.3023 857.263 L62.5661 855.597 L67.242 855.597 L67.242 886.221 L74.8809 886.221 L74.8809 890.157 L54.9736 890.157 L54.9736 886.221 Z" fill="#000000" fill-rule="nonzero" fill-opacity="1" /><path clip-path="url(#clip290)" d="M58.5615 567.017 L74.8809 567.017 L74.8809 570.952 L52.9366 570.952 L52.9366 567.017 Q55.5986 564.262 60.1819 559.632 Q64.7883 554.98 65.9689 553.637 Q68.2143 551.114 69.0939 549.378 Q69.9967 547.619 69.9967 545.929 Q69.9967 543.174 68.0522 541.438 Q66.1309 539.702 63.0291 539.702 Q60.83 539.702 58.3763 540.466 Q55.9458 541.23 53.168 542.781 L53.168 538.058 Q55.9921 536.924 58.4458 536.346 Q60.8995 535.767 62.9365 535.767 Q68.3068 535.767 71.5013 538.452 Q74.6957 541.137 74.6957 545.628 Q74.6957 547.757 73.8855 549.679 Q73.0985 551.577 70.992 554.169 Q70.4133 554.841 67.3115 558.058 Q64.2096 561.253 58.5615 567.017 Z" fill="#000000" fill-rule="nonzero" fill-opacity="1" /><path clip-path="url(#clip290)" d="M67.7513 233.113 Q71.1078 233.831 72.9827 236.099 Q74.8809 238.368 74.8809 241.701 Q74.8809 246.817 71.3624 249.617 Q67.8439 252.418 61.3624 252.418 Q59.1865 252.418 56.8717 251.979 Q54.5801 251.562 52.1264 250.705 L52.1264 246.192 Q54.0708 247.326 56.3856 247.905 Q58.7004 248.483 61.2236 248.483 Q65.6217 248.483 67.9133 246.747 Q70.2281 245.011 70.2281 241.701 Q70.2281 238.645 68.0754 236.932 Q65.9457 235.196 62.1263 235.196 L58.0986 235.196 L58.0986 231.354 L62.3115 231.354 Q65.7606 231.354 67.5893 229.988 Q69.418 228.599 69.418 226.006 Q69.418 223.344 67.5198 221.932 Q65.6448 220.497 62.1263 220.497 Q60.205 220.497 58.006 220.914 Q55.8069 221.331 53.168 222.21 L53.168 218.044 Q55.8301 217.303 58.1449 216.932 Q60.4828 216.562 62.543 216.562 Q67.867 216.562 70.9689 218.993 Q74.0707 221.4 74.0707 225.52 Q74.0707 228.391 72.4272 230.381 Q70.7837 232.349 67.7513 233.113 Z" fill="#000000" fill-rule="nonzero" fill-opacity="1" /><polyline clip-path="url(#clip292)" style="stroke:#cd0000; stroke-linecap:round; stroke-linejoin:round; stroke-width:4; stroke-opacity:1; fill:none" points="110.881,87.9763 114.53,91.7302 118.179,95.5486 121.828,99.4319 125.477,103.381 142.347,122.492 159.217,143.03 176.087,165.008 192.956,188.431 209.826,213.293 226.696,239.58 243.566,267.264 260.436,296.311 280.713,332.96 300.989,371.413 321.265,411.554 341.541,453.249 375.828,526.858 410.115,603.64 484.604,776.761 553.277,936.271 571.684,977.802 590.09,1018.48 608.496,1058.14 626.902,1096.6 648.228,1139.47 669.553,1180.28 690.878,1218.8 712.204,1254.82 731.155,1284.57 750.107,1312.08 769.058,1337.21 788.01,1359.88 804.628,1377.67 821.247,1393.45 837.866,1407.19 854.484,1418.85 872.603,1429.18 890.722,1437.01 908.841,1442.34 926.96,1445.18 945.187,1445.57 963.413,1443.52 981.64,1439.08 999.866,1432.32 1020.02,1422.26 1040.17,1409.59 1060.32,1394.46 1080.47,1377.02 1099.65,1358.46 1118.82,1338.13 1138,1316.21 1157.17,1292.88 1197.04,1240.63 1236.91,1184.81 1270.48,1136.36 1304.04,1087.7 1345.02,1029.52 1386,974.355 1404.77,950.54 1423.54,927.836 1442.31,906.372 1461.08,886.265 1478.41,868.991 1495.75,853.035 1513.08,838.458 1530.42,825.313 1547.98,813.498 1565.54,803.224 1583.1,794.509 1600.66,787.359 1620.34,781.2 1640.02,776.974 1659.7,774.638 1679.38,774.13 1697.21,775.181 1715.04,777.594 1732.87,781.286 1750.71,786.164 1771.13,793.071 1791.54,801.225 1811.96,810.439 1832.38,820.515 1870.19,840.731 1908,861.756 1945.27,881.823 1982.55,899.767 2000.64,907.277 2018.74,913.781 2036.84,919.12 2054.93,923.141 2073.48,925.739 2092.03,926.644 2110.58,925.712 2129.13,922.81 2149.46,917.222 2169.78,908.975 2190.11,897.939 2210.43,884.005 2225.19,872.013 2239.95,858.416 2254.72,843.19 2269.48,826.32 2284.24,807.794 2299,787.608 2313.77,765.763 2328.53,742.267 2334.58,732.151 2340.64,721.761 2346.7,711.098 2352.76,700.163 "/>
<polyline clip-path="url(#clip292)" style="stroke:#0000cd; stroke-linecap:round; stroke-linejoin:round; stroke-width:4; stroke-opacity:1; fill:none" points="1500.84,848.604 1254.24,1159.89 738.606,1295.66 895.971,1438.81 956.209,1444.62 938.999,1445.72 939.041,1445.72 938.93,1445.72 938.931,1445.72 938.931,1445.72 938.885,1445.72 938.928,1445.72 938.931,1445.72 "/>
<circle clip-path="url(#clip292)" cx="1500.84" cy="848.604" r="14.4" fill="#0000cd" fill-rule="evenodd" fill-opacity="1" stroke="#000000" stroke-opacity="1" stroke-width="3.2"/>
<circle clip-path="url(#clip292)" cx="1254.24" cy="1159.89" r="14.4" fill="#0000cd" fill-rule="evenodd" fill-opacity="1" stroke="#000000" stroke-opacity="1" stroke-width="3.2"/>
<circle clip-path="url(#clip292)" cx="738.606" cy="1295.66" r="14.4" fill="#0000cd" fill-rule="evenodd" fill-opacity="1" stroke="#000000" stroke-opacity="1" stroke-width="3.2"/>
<path clip-path="url(#clip290)" d="M1769.58 302.578 L2278.03 302.578 L2278.03 95.2176 L1769.58 95.2176  Z" fill="#ffffff" fill-rule="evenodd" fill-opacity="1"/>
<polyline clip-path="url(#clip290)" style="stroke:#000000; stroke-linecap:round; stroke-linejoin:round; stroke-width:4; stroke-opacity:1; fill:none" points="1769.58,302.578 2278.03,302.578 2278.03,95.2176 1769.58,95.2176 1769.58,302.578 "/>
<polyline clip-path="url(#clip290)" style="stroke:#cd0000; stroke-linecap:round; stroke-linejoin:round; stroke-width:4; stroke-opacity:1; fill:none" points="1794.49,147.058 1943.95,147.058 "/>
<path clip-path="url(#clip290)" d="M1980.76 141.398 Q1977.33 141.398 1975.34 144.083 Q1973.35 146.745 1973.35 151.398 Q1973.35 156.051 1975.32 158.736 Q1977.31 161.398 1980.76 161.398 Q1984.16 161.398 1986.15 158.713 Q1988.14 156.027 1988.14 151.398 Q1988.14 146.791 1986.15 144.106 Q1984.16 141.398 1980.76 141.398 M1980.76 137.787 Q1986.31 137.787 1989.48 141.398 Q1992.66 145.009 1992.66 151.398 Q1992.66 157.764 1989.48 161.398 Q1986.31 165.009 1980.76 165.009 Q1975.18 165.009 1972.01 161.398 Q1968.86 157.764 1968.86 151.398 Q1968.86 145.009 1972.01 141.398 Q1975.18 137.787 1980.76 137.787 Z" fill="#000000" fill-rule="nonzero" fill-opacity="1" /><path clip-path="url(#clip290)" d="M2018.33 151.398 Q2018.33 146.699 2016.38 144.037 Q2014.46 141.352 2011.08 141.352 Q2007.7 141.352 2005.76 144.037 Q2003.84 146.699 2003.84 151.398 Q2003.84 156.097 2005.76 158.782 Q2007.7 161.444 2011.08 161.444 Q2014.46 161.444 2016.38 158.782 Q2018.33 156.097 2018.33 151.398 M2003.84 142.347 Q2005.18 140.032 2007.22 138.921 Q2009.28 137.787 2012.12 137.787 Q2016.85 137.787 2019.78 141.537 Q2022.75 145.287 2022.75 151.398 Q2022.75 157.509 2019.78 161.259 Q2016.85 165.009 2012.12 165.009 Q2009.28 165.009 2007.22 163.898 Q2005.18 162.763 2003.84 160.449 L2003.84 164.338 L1999.55 164.338 L1999.55 128.319 L2003.84 128.319 L2003.84 142.347 Z" fill="#000000" fill-rule="nonzero" fill-opacity="1" /><path clip-path="url(#clip290)" d="M2029.81 138.412 L2034.07 138.412 L2034.07 164.801 Q2034.07 169.754 2032.17 171.976 Q2030.29 174.199 2026.1 174.199 L2024.48 174.199 L2024.48 170.588 L2025.62 170.588 Q2028.05 170.588 2028.93 169.453 Q2029.81 168.342 2029.81 164.801 L2029.81 138.412 M2029.81 128.319 L2034.07 128.319 L2034.07 133.713 L2029.81 133.713 L2029.81 128.319 Z" fill="#000000" fill-rule="nonzero" fill-opacity="1" /><path clip-path="url(#clip290)" d="M2065.16 150.31 L2065.16 152.393 L2045.57 152.393 Q2045.85 156.791 2048.21 159.106 Q2050.59 161.398 2054.83 161.398 Q2057.28 161.398 2059.58 160.796 Q2061.89 160.194 2064.16 158.99 L2064.16 163.018 Q2061.87 163.99 2059.46 164.5 Q2057.05 165.009 2054.58 165.009 Q2048.37 165.009 2044.74 161.398 Q2041.13 157.787 2041.13 151.629 Q2041.13 145.264 2044.55 141.537 Q2048 137.787 2053.84 137.787 Q2059.07 137.787 2062.1 141.166 Q2065.16 144.523 2065.16 150.31 M2060.9 149.06 Q2060.85 145.565 2058.93 143.481 Q2057.03 141.398 2053.88 141.398 Q2050.32 141.398 2048.16 143.412 Q2046.03 145.426 2045.71 149.083 L2060.9 149.06 Z" fill="#000000" fill-rule="nonzero" fill-opacity="1" /><path clip-path="url(#clip290)" d="M2090.8 139.407 L2090.8 143.389 Q2089 142.393 2087.17 141.907 Q2085.36 141.398 2083.51 141.398 Q2079.37 141.398 2077.08 144.037 Q2074.78 146.652 2074.78 151.398 Q2074.78 156.143 2077.08 158.782 Q2079.37 161.398 2083.51 161.398 Q2085.36 161.398 2087.17 160.912 Q2089 160.402 2090.8 159.407 L2090.8 163.342 Q2089.02 164.176 2087.1 164.592 Q2085.2 165.009 2083.05 165.009 Q2077.19 165.009 2073.74 161.328 Q2070.29 157.648 2070.29 151.398 Q2070.29 145.055 2073.77 141.421 Q2077.26 137.787 2083.33 137.787 Q2085.29 137.787 2087.17 138.203 Q2089.04 138.597 2090.8 139.407 Z" fill="#000000" fill-rule="nonzero" fill-opacity="1" /><path clip-path="url(#clip290)" d="M2102.42 131.051 L2102.42 138.412 L2111.2 138.412 L2111.2 141.722 L2102.42 141.722 L2102.42 155.796 Q2102.42 158.967 2103.28 159.87 Q2104.16 160.773 2106.82 160.773 L2111.2 160.773 L2111.2 164.338 L2106.82 164.338 Q2101.89 164.338 2100.02 162.509 Q2098.14 160.657 2098.14 155.796 L2098.14 141.722 L2095.02 141.722 L2095.02 138.412 L2098.14 138.412 L2098.14 131.051 L2102.42 131.051 Z" fill="#000000" fill-rule="nonzero" fill-opacity="1" /><path clip-path="url(#clip290)" d="M2116.8 138.412 L2121.06 138.412 L2121.06 164.338 L2116.8 164.338 L2116.8 138.412 M2116.8 128.319 L2121.06 128.319 L2121.06 133.713 L2116.8 133.713 L2116.8 128.319 Z" fill="#000000" fill-rule="nonzero" fill-opacity="1" /><path clip-path="url(#clip290)" d="M2126.91 138.412 L2131.43 138.412 L2139.53 160.171 L2147.63 138.412 L2152.15 138.412 L2142.42 164.338 L2136.64 164.338 L2126.91 138.412 Z" fill="#000000" fill-rule="nonzero" fill-opacity="1" /><path clip-path="url(#clip290)" d="M2180.2 150.31 L2180.2 152.393 L2160.62 152.393 Q2160.9 156.791 2163.26 159.106 Q2165.64 161.398 2169.88 161.398 Q2172.33 161.398 2174.62 160.796 Q2176.94 160.194 2179.21 158.99 L2179.21 163.018 Q2176.91 163.99 2174.51 164.5 Q2172.1 165.009 2169.62 165.009 Q2163.42 165.009 2159.78 161.398 Q2156.17 157.787 2156.17 151.629 Q2156.17 145.264 2159.6 141.537 Q2163.05 137.787 2168.88 137.787 Q2174.11 137.787 2177.15 141.166 Q2180.2 144.523 2180.2 150.31 M2175.94 149.06 Q2175.9 145.565 2173.97 143.481 Q2172.08 141.398 2168.93 141.398 Q2165.36 141.398 2163.21 143.412 Q2161.08 145.426 2160.76 149.083 L2175.94 149.06 Z" fill="#000000" fill-rule="nonzero" fill-opacity="1" /><polyline clip-path="url(#clip290)" style="stroke:#0000cd; stroke-linecap:round; stroke-linejoin:round; stroke-width:4; stroke-opacity:1; fill:none" points="1794.49,198.898 1943.95,198.898 "/>
<path clip-path="url(#clip290)" d="M1968.86 190.252 L1973.12 190.252 L1973.12 216.178 L1968.86 216.178 L1968.86 190.252 M1968.86 180.159 L1973.12 180.159 L1973.12 185.553 L1968.86 185.553 L1968.86 180.159 Z" fill="#000000" fill-rule="nonzero" fill-opacity="1" /><path clip-path="url(#clip290)" d="M1986.24 182.891 L1986.24 190.252 L1995.02 190.252 L1995.02 193.562 L1986.24 193.562 L1986.24 207.636 Q1986.24 210.807 1987.1 211.71 Q1987.98 212.613 1990.64 212.613 L1995.02 212.613 L1995.02 216.178 L1990.64 216.178 Q1985.71 216.178 1983.84 214.349 Q1981.96 212.497 1981.96 207.636 L1981.96 193.562 L1978.84 193.562 L1978.84 190.252 L1981.96 190.252 L1981.96 182.891 L1986.24 182.891 Z" fill="#000000" fill-rule="nonzero" fill-opacity="1" /><path clip-path="url(#clip290)" d="M2022.79 202.15 L2022.79 204.233 L2003.21 204.233 Q2003.49 208.631 2005.85 210.946 Q2008.23 213.238 2012.47 213.238 Q2014.92 213.238 2017.22 212.636 Q2019.53 212.034 2021.8 210.83 L2021.8 214.858 Q2019.51 215.83 2017.1 216.34 Q2014.69 216.849 2012.22 216.849 Q2006.01 216.849 2002.38 213.238 Q1998.77 209.627 1998.77 203.469 Q1998.77 197.104 2002.19 193.377 Q2005.64 189.627 2011.47 189.627 Q2016.71 189.627 2019.74 193.006 Q2022.79 196.363 2022.79 202.15 M2018.53 200.9 Q2018.49 197.405 2016.57 195.321 Q2014.67 193.238 2011.52 193.238 Q2007.96 193.238 2005.8 195.252 Q2003.67 197.266 2003.35 200.923 L2018.53 200.9 Z" fill="#000000" fill-rule="nonzero" fill-opacity="1" /><path clip-path="url(#clip290)" d="M2044.81 194.233 Q2044.09 193.817 2043.23 193.631 Q2042.4 193.423 2041.38 193.423 Q2037.77 193.423 2035.83 195.784 Q2033.91 198.122 2033.91 202.52 L2033.91 216.178 L2029.62 216.178 L2029.62 190.252 L2033.91 190.252 L2033.91 194.28 Q2035.25 191.918 2037.4 190.784 Q2039.55 189.627 2042.63 189.627 Q2043.07 189.627 2043.6 189.696 Q2044.14 189.743 2044.78 189.858 L2044.81 194.233 Z" fill="#000000" fill-rule="nonzero" fill-opacity="1" /><path clip-path="url(#clip290)" d="M2061.06 203.145 Q2055.9 203.145 2053.91 204.326 Q2051.91 205.506 2051.91 208.354 Q2051.91 210.622 2053.4 211.965 Q2054.9 213.284 2057.47 213.284 Q2061.01 213.284 2063.14 210.784 Q2065.29 208.261 2065.29 204.094 L2065.29 203.145 L2061.06 203.145 M2069.55 201.386 L2069.55 216.178 L2065.29 216.178 L2065.29 212.242 Q2063.84 214.603 2061.66 215.738 Q2059.48 216.849 2056.34 216.849 Q2052.35 216.849 2049.99 214.627 Q2047.66 212.381 2047.66 208.631 Q2047.66 204.256 2050.57 202.034 Q2053.51 199.812 2059.32 199.812 L2065.29 199.812 L2065.29 199.395 Q2065.29 196.455 2063.35 194.858 Q2061.43 193.238 2057.93 193.238 Q2055.71 193.238 2053.6 193.77 Q2051.5 194.303 2049.55 195.367 L2049.55 191.432 Q2051.89 190.53 2054.09 190.09 Q2056.29 189.627 2058.37 189.627 Q2064 189.627 2066.78 192.543 Q2069.55 195.46 2069.55 201.386 Z" fill="#000000" fill-rule="nonzero" fill-opacity="1" /><path clip-path="url(#clip290)" d="M2082.54 182.891 L2082.54 190.252 L2091.31 190.252 L2091.31 193.562 L2082.54 193.562 L2082.54 207.636 Q2082.54 210.807 2083.4 211.71 Q2084.28 212.613 2086.94 212.613 L2091.31 212.613 L2091.31 216.178 L2086.94 216.178 Q2082.01 216.178 2080.13 214.349 Q2078.26 212.497 2078.26 207.636 L2078.26 193.562 L2075.13 193.562 L2075.13 190.252 L2078.26 190.252 L2078.26 182.891 L2082.54 182.891 Z" fill="#000000" fill-rule="nonzero" fill-opacity="1" /><path clip-path="url(#clip290)" d="M2096.91 190.252 L2101.17 190.252 L2101.17 216.178 L2096.91 216.178 L2096.91 190.252 M2096.91 180.159 L2101.17 180.159 L2101.17 185.553 L2096.91 185.553 L2096.91 180.159 Z" fill="#000000" fill-rule="nonzero" fill-opacity="1" /><path clip-path="url(#clip290)" d="M2120.13 193.238 Q2116.71 193.238 2114.71 195.923 Q2112.72 198.585 2112.72 203.238 Q2112.72 207.891 2114.69 210.576 Q2116.68 213.238 2120.13 213.238 Q2123.53 213.238 2125.53 210.553 Q2127.52 207.867 2127.52 203.238 Q2127.52 198.631 2125.53 195.946 Q2123.53 193.238 2120.13 193.238 M2120.13 189.627 Q2125.69 189.627 2128.86 193.238 Q2132.03 196.849 2132.03 203.238 Q2132.03 209.604 2128.86 213.238 Q2125.69 216.849 2120.13 216.849 Q2114.55 216.849 2111.38 213.238 Q2108.23 209.604 2108.23 203.238 Q2108.23 196.849 2111.38 193.238 Q2114.55 189.627 2120.13 189.627 Z" fill="#000000" fill-rule="nonzero" fill-opacity="1" /><path clip-path="url(#clip290)" d="M2160.64 200.529 L2160.64 216.178 L2156.38 216.178 L2156.38 200.668 Q2156.38 196.988 2154.95 195.159 Q2153.51 193.33 2150.64 193.33 Q2147.19 193.33 2145.2 195.53 Q2143.21 197.729 2143.21 201.525 L2143.21 216.178 L2138.93 216.178 L2138.93 190.252 L2143.21 190.252 L2143.21 194.28 Q2144.74 191.942 2146.8 190.784 Q2148.88 189.627 2151.59 189.627 Q2156.06 189.627 2158.35 192.405 Q2160.64 195.159 2160.64 200.529 Z" fill="#000000" fill-rule="nonzero" fill-opacity="1" /><circle clip-path="url(#clip290)" cx="1869.22" cy="250.738" r="20.48" fill="#0000cd" fill-rule="evenodd" fill-opacity="1" stroke="#000000" stroke-opacity="1" stroke-width="4.55111"/>
<path clip-path="url(#clip290)" d="M1968.86 242.092 L1973.12 242.092 L1973.12 268.018 L1968.86 268.018 L1968.86 242.092 M1968.86 231.999 L1973.12 231.999 L1973.12 237.393 L1968.86 237.393 L1968.86 231.999 Z" fill="#000000" fill-rule="nonzero" fill-opacity="1" /><path clip-path="url(#clip290)" d="M2003.58 252.369 L2003.58 268.018 L1999.32 268.018 L1999.32 252.508 Q1999.32 248.828 1997.89 246.999 Q1996.45 245.17 1993.58 245.17 Q1990.13 245.17 1988.14 247.37 Q1986.15 249.569 1986.15 253.365 L1986.15 268.018 L1981.87 268.018 L1981.87 242.092 L1986.15 242.092 L1986.15 246.12 Q1987.68 243.782 1989.74 242.624 Q1991.82 241.467 1994.53 241.467 Q1999 241.467 2001.29 244.245 Q2003.58 246.999 2003.58 252.369 Z" fill="#000000" fill-rule="nonzero" fill-opacity="1" /><path clip-path="url(#clip290)" d="M2012.08 242.092 L2016.34 242.092 L2016.34 268.018 L2012.08 268.018 L2012.08 242.092 M2012.08 231.999 L2016.34 231.999 L2016.34 237.393 L2012.08 237.393 L2012.08 231.999 Z" fill="#000000" fill-rule="nonzero" fill-opacity="1" /><path clip-path="url(#clip290)" d="M2029.46 234.731 L2029.46 242.092 L2038.23 242.092 L2038.23 245.402 L2029.46 245.402 L2029.46 259.476 Q2029.46 262.647 2030.32 263.55 Q2031.2 264.453 2033.86 264.453 L2038.23 264.453 L2038.23 268.018 L2033.86 268.018 Q2028.93 268.018 2027.05 266.189 Q2025.18 264.337 2025.18 259.476 L2025.18 245.402 L2022.05 245.402 L2022.05 242.092 L2025.18 242.092 L2025.18 234.731 L2029.46 234.731 Z" fill="#000000" fill-rule="nonzero" fill-opacity="1" /><path clip-path="url(#clip290)" d="M2043.84 242.092 L2048.09 242.092 L2048.09 268.018 L2043.84 268.018 L2043.84 242.092 M2043.84 231.999 L2048.09 231.999 L2048.09 237.393 L2043.84 237.393 L2043.84 231.999 Z" fill="#000000" fill-rule="nonzero" fill-opacity="1" /><path clip-path="url(#clip290)" d="M2068.79 254.985 Q2063.63 254.985 2061.64 256.166 Q2059.65 257.346 2059.65 260.194 Q2059.65 262.462 2061.13 263.805 Q2062.63 265.124 2065.2 265.124 Q2068.74 265.124 2070.87 262.624 Q2073.03 260.101 2073.03 255.934 L2073.03 254.985 L2068.79 254.985 M2077.28 253.226 L2077.28 268.018 L2073.03 268.018 L2073.03 264.082 Q2071.57 266.443 2069.39 267.578 Q2067.22 268.689 2064.07 268.689 Q2060.09 268.689 2057.72 266.467 Q2055.39 264.221 2055.39 260.471 Q2055.39 256.096 2058.3 253.874 Q2061.24 251.652 2067.05 251.652 L2073.03 251.652 L2073.03 251.235 Q2073.03 248.295 2071.08 246.698 Q2069.16 245.078 2065.66 245.078 Q2063.44 245.078 2061.34 245.61 Q2059.23 246.143 2057.28 247.207 L2057.28 243.272 Q2059.62 242.37 2061.82 241.93 Q2064.02 241.467 2066.1 241.467 Q2071.73 241.467 2074.51 244.383 Q2077.28 247.3 2077.28 253.226 Z" fill="#000000" fill-rule="nonzero" fill-opacity="1" /><path clip-path="url(#clip290)" d="M2086.06 231.999 L2090.32 231.999 L2090.32 268.018 L2086.06 268.018 L2086.06 231.999 Z" fill="#000000" fill-rule="nonzero" fill-opacity="1" /><path clip-path="url(#clip290)" d="M2118.42 264.129 L2118.42 277.879 L2114.14 277.879 L2114.14 242.092 L2118.42 242.092 L2118.42 246.027 Q2119.76 243.712 2121.8 242.601 Q2123.86 241.467 2126.71 241.467 Q2131.43 241.467 2134.37 245.217 Q2137.33 248.967 2137.33 255.078 Q2137.33 261.189 2134.37 264.939 Q2131.43 268.689 2126.71 268.689 Q2123.86 268.689 2121.8 267.578 Q2119.76 266.443 2118.42 264.129 M2132.91 255.078 Q2132.91 250.379 2130.96 247.717 Q2129.04 245.032 2125.66 245.032 Q2122.28 245.032 2120.34 247.717 Q2118.42 250.379 2118.42 255.078 Q2118.42 259.777 2120.34 262.462 Q2122.28 265.124 2125.66 265.124 Q2129.04 265.124 2130.96 262.462 Q2132.91 259.777 2132.91 255.078 Z" fill="#000000" fill-rule="nonzero" fill-opacity="1" /><path clip-path="url(#clip290)" d="M2154.44 245.078 Q2151.01 245.078 2149.02 247.763 Q2147.03 250.425 2147.03 255.078 Q2147.03 259.731 2149 262.416 Q2150.99 265.078 2154.44 265.078 Q2157.84 265.078 2159.83 262.393 Q2161.82 259.707 2161.82 255.078 Q2161.82 250.471 2159.83 247.786 Q2157.84 245.078 2154.44 245.078 M2154.44 241.467 Q2159.99 241.467 2163.16 245.078 Q2166.34 248.689 2166.34 255.078 Q2166.34 261.444 2163.16 265.078 Q2159.99 268.689 2154.44 268.689 Q2148.86 268.689 2145.69 265.078 Q2142.54 261.444 2142.54 255.078 Q2142.54 248.689 2145.69 245.078 Q2148.86 241.467 2154.44 241.467 Z" fill="#000000" fill-rule="nonzero" fill-opacity="1" /><path clip-path="url(#clip290)" d="M2173.4 242.092 L2177.65 242.092 L2177.65 268.018 L2173.4 268.018 L2173.4 242.092 M2173.4 231.999 L2177.65 231.999 L2177.65 237.393 L2173.4 237.393 L2173.4 231.999 Z" fill="#000000" fill-rule="nonzero" fill-opacity="1" /><path clip-path="url(#clip290)" d="M2208.12 252.369 L2208.12 268.018 L2203.86 268.018 L2203.86 252.508 Q2203.86 248.828 2202.42 246.999 Q2200.99 245.17 2198.12 245.17 Q2194.67 245.17 2192.68 247.37 Q2190.69 249.569 2190.69 253.365 L2190.69 268.018 L2186.4 268.018 L2186.4 242.092 L2190.69 242.092 L2190.69 246.12 Q2192.21 243.782 2194.27 242.624 Q2196.36 241.467 2199.07 241.467 Q2203.53 241.467 2205.83 244.245 Q2208.12 246.999 2208.12 252.369 Z" fill="#000000" fill-rule="nonzero" fill-opacity="1" /><path clip-path="url(#clip290)" d="M2220.83 234.731 L2220.83 242.092 L2229.6 242.092 L2229.6 245.402 L2220.83 245.402 L2220.83 259.476 Q2220.83 262.647 2221.68 263.55 Q2222.56 264.453 2225.22 264.453 L2229.6 264.453 L2229.6 268.018 L2225.22 268.018 Q2220.29 268.018 2218.42 266.189 Q2216.54 264.337 2216.54 259.476 L2216.54 245.402 L2213.42 245.402 L2213.42 242.092 L2216.54 242.092 L2216.54 234.731 L2220.83 234.731 Z" fill="#000000" fill-rule="nonzero" fill-opacity="1" /><path clip-path="url(#clip290)" d="M2251.73 242.856 L2251.73 246.883 Q2249.92 245.957 2247.98 245.495 Q2246.03 245.032 2243.95 245.032 Q2240.78 245.032 2239.18 246.004 Q2237.61 246.976 2237.61 248.92 Q2237.61 250.402 2238.74 251.258 Q2239.88 252.092 2243.3 252.856 L2244.76 253.18 Q2249.3 254.152 2251.2 255.934 Q2253.12 257.694 2253.12 260.865 Q2253.12 264.476 2250.25 266.582 Q2247.4 268.689 2242.4 268.689 Q2240.32 268.689 2238.05 268.272 Q2235.8 267.879 2233.3 267.068 L2233.3 262.67 Q2235.66 263.897 2237.96 264.522 Q2240.25 265.124 2242.49 265.124 Q2245.5 265.124 2247.12 264.106 Q2248.74 263.064 2248.74 261.189 Q2248.74 259.453 2247.56 258.527 Q2246.4 257.601 2242.45 256.744 L2240.96 256.397 Q2237.01 255.564 2235.25 253.851 Q2233.49 252.115 2233.49 249.106 Q2233.49 245.448 2236.08 243.458 Q2238.67 241.467 2243.44 241.467 Q2245.8 241.467 2247.89 241.814 Q2249.97 242.161 2251.73 242.856 Z" fill="#000000" fill-rule="nonzero" fill-opacity="1" /></svg>
